<svg version="1.1" x="0px" y="0px" width="195.24029541016" height="164.99995422363" xmlns="http://www.w3.org/2000/svg" xmlns:xlink="http://www.w3.org/1999/xlink" xmlns:a="http://ns.adobe.com/AdobeSVGViewerExtensions/3.0/" xml:space="preserve"><g transform="translate(0 0)"><g transform="translate(0 0) scale(1.4516982073973 1.4516972075055) rotate(0 67.245483398438 56.830017089844)"><path d="M40.582 98.272l.004-.001-38.036 1.751-.196.009 12.602.308 13.475.268.029-.005c8.538 4.452 27.431 7.42 46.497 7.302l-.106-.044 2.179-3.841c-15.329.691-31.659-1.881-36.448-5.747zM96.259 95.707l-.006.001 38.238-1.761-12.602-.31-13.482-.267-.025.005c-8.539-4.448-27.415-7.413-46.463-7.298l-2.2 3.888c15.346-.705 31.736 1.87 36.54 5.742zM24.467 97.236l16.084 1.011c-4.729-3.863 3.848-7.575 19.168-8.281l-4.602-3.713-7.353-5.933.279 3.069.56 3.291.031.009c-17.271 1.559-27.153 5.852-24.324 10.566l.157-.019zM96.26 95.708c4.8 3.873-3.78 7.599-19.126 8.306l-.009-.003 11.893 9.598.063.051-.285-3.07-.562-3.292-.019-.006c17.26-1.558 27.145-5.849 24.325-10.561l-16.28-1.023z" fill="#bbbdbf"></path><path d="M37.925 61.205l-.001-.003.004-.003L.194 67.17 0 67.2l12.654 1.05 13.521.911.027-.019c9.308 15.18 28.713 25.299 47.759 24.895l-.114-.149 1.516-13.095C60.156 83.15 43.381 74.38 37.925 61.205z" fill="#ee4036"></path><path d="M93.157 52.457l-.005.003 37.935-6.002-12.656-1.054-13.527-.911-.025.018c-9.307-15.165-28.695-25.272-47.723-24.88l-1.528 13.255c15.224-2.409 32.058 6.372 37.529 19.571z" fill="#8bc53f"></path><path d="M21.63 57.67l16.259 3.446c-5.396-13.171 2.539-25.825 17.738-28.23l-5.243-12.658L42.006 0l.811 10.466 1.127 11.219.033.032c-17.002 5.312-26.143 19.947-22.5 36.02l.153-.067z" fill="#1b75bb"></path><path d="M93.159 52.462l.001.003c5.468 13.201-2.469 25.9-17.692 28.313l-.01-.01 13.551 32.718.072.174-.816-10.466-1.129-11.224-.02-.019c16.99-5.311 26.134-19.94 22.5-36.006l-16.457-3.483z" fill="#faaf40"></path></g></g></svg>